<svg aria-hidden="true" style="position: absolute; width: 0; height: 0; overflow: hidden;" version="1.1" xmlns="http://www.w3.org/2000/svg" xmlns:xlink="http://www.w3.org/1999/xlink">
<defs>
<symbol id="icon-Vector1" viewBox="0 0 21 20">
<path d="M18.933 2.267v15.467h-16.533v-15.467h16.533zM18.933 0h-16.533c-1.333 0-2.4 1.067-2.4 2.267v15.467c0 1.333 1.067 2.267 2.4 2.267h16.533c1.333 0 2.4-1.067 2.4-2.267v-15.467c0-1.333-1.067-2.267-2.4-2.267z"></path>
</symbol>
<symbol id="icon-close" viewBox="0 0 20 20">
<path d="M16.667 4.556l-1.222-1.222-4.889 4.889-4.889-4.889-1.222 1.222 4.889 4.889-4.889 4.889 1.222 1.222 4.889-4.889 4.889 4.889 1.222-1.222-4.889-4.889 4.889-4.889z"></path>
</symbol>
<symbol id="icon-icon-check" viewBox="0 0 21 20">
<path fill="#2196f3" style="fill: var(--color1, #2196f3)" d="M2.667 0h16c1.473 0 2.667 1.194 2.667 2.667v14.667c0 1.473-1.194 2.667-2.667 2.667h-16c-1.473 0-2.667-1.194-2.667-2.667v-14.667c0-1.473 1.194-2.667 2.667-2.667z"></path>
<path fill="#fff" style="fill: var(--color2, #fff); stroke: var(--color2, #fff)" stroke="#fff" stroke-linejoin="miter" stroke-linecap="butt" stroke-miterlimit="4" stroke-width="0.2667" d="M5.333 10.4l-0.133-0.133-1.333 1.2v0.133l4.667 4.533h0.133l10.133-9.6v-0.133l-1.333-1.2-8.8 8.4-3.333-3.2z"></path>
</symbol>
<symbol id="icon-email-black" viewBox="0 0 20 20">
<path d="M16.667 3.333h-13.333c-0.889 0-1.667 0.778-1.667 1.667v10c0 0.889 0.778 1.667 1.667 1.667h13.333c0.889 0 1.667-0.778 1.667-1.667v-10c0-0.889-0.778-1.667-1.667-1.667zM16.333 6.889l-5.889 3.667c-0.222 0.222-0.667 0.222-0.889 0l-5.889-3.667c-0.176-0.124-0.289-0.327-0.289-0.556 0-0.375 0.304-0.678 0.678-0.678 0.146 0 0.281 0.046 0.391 0.124l-0.002-0.001 5.556 3.333 5.556-3.333c0.108-0.077 0.243-0.123 0.389-0.123 0.375 0 0.678 0.304 0.678 0.678 0 0.229-0.113 0.431-0.287 0.554l-0.002 0.001z"></path>
</symbol>
<symbol id="icon-person" viewBox="0 0 20 20">
<path d="M10 10c1.841 0 3.333-1.492 3.333-3.333s-1.492-3.333-3.333-3.333v0c-1.841 0-3.333 1.492-3.333 3.333s1.492 3.333 3.333 3.333v0zM10 11.667c-2.222 0-6.667 1.111-6.667 3.333v0.889c0 0.444 0.333 0.778 0.889 0.778h11.556c0.556 0 0.889-0.333 0.889-0.889v-0.778c0-2.222-4.444-3.333-6.667-3.333z"></path>
</symbol>
<symbol id="icon-phone-black" viewBox="0 0 20 20">
<path d="M15.556 12.333l-2-0.222c-0.556 0-1.111 0.111-1.333 0.444l-1.556 1.556c-2.222-1.111-4.111-3.111-5.222-5.333l1.444-1.556c0.333-0.333 0.556-0.778 0.444-1.222l-0.222-2.111c0-0.778-0.778-1.333-1.556-1.333h-1.444c-0.889 0-1.667 0.667-1.556 1.667 0.444 6.778 5.889 12.222 12.778 12.778 0.889 0 1.667-0.778 1.667-1.667v-1.333c0-0.889-0.667-1.556-1.444-1.667z"></path>
</symbol>
<symbol id="icon-close" viewBox="0 0 20 20">
<path fill="#fff" style="fill: var(--color2, #fff)" d="M20 10c0 5.523-4.477 10-10 10s-10-4.477-10-10c0-5.523 4.477-10 10-10s10 4.477 10 10z"></path>
<path fill="none"  style="stroke: var(--color3, #000)"  d="M19.667 10c0 5.339-4.328 9.667-9.667 9.667s-9.667-4.328-9.667-9.667c0-5.339 4.328-9.667 9.667-9.667s9.667 4.328 9.667 9.667z"></path>
<path  d="M14 6.733l-0.733-0.733-2.933 2.933-2.933-2.933-0.733 0.733 2.933 2.933-2.933 2.933 0.733 0.733 2.933-2.933 2.933 2.933 0.733-0.733-2.933-2.933 2.933-2.933z"></path>
</symbol>
<symbol id="icon-icon-send" viewBox="0 0 20 20">
<path fill="#fff" style="fill: var(--color2, #fff)" d="M20 0l-20 11.25 6.417 2.333 9.833-9.167-7.5 10v5.583l3.583-4.167 4.583 1.667 3.083-17.5z"></path>
</symbol>
<symbol id="icon-group" viewBox="0 0 35 20">
<path  d="M12.667 2.333l2.336 2.211-4.336-0.003v10.729h11.333v-4.102l2.333 2.209v-11.045h-11.667zM21.897 10.909l-6.623-6.27h6.623v6.27zM19.841 13.702h-7.381v-7.215h0.522v6.727h6.859v0.488zM14.203 16.7l-0.273 0.562-0.273-0.562h-0.229l0.398 0.749v0.436h0.207v-0.436l0.397-0.749h-0.228zM14.546 17.885l0.096-0.276h0.459l0.097 0.276h0.215l-0.448-1.185h-0.185l-0.447 1.185h0.214zM14.871 16.952l0.172 0.491h-0.343l0.172-0.492zM15.957 17.415c-0.028 0.042-0.045 0.093-0.045 0.148 0 0.001 0 0.001 0 0.002v-0c0 0.1 0.035 0.181 0.105 0.243s0.164 0.093 0.281 0.093c0.117 0 0.218-0.032 0.303-0.095l0.067 0.079h0.229l-0.174-0.206c0.068-0.093 0.102-0.213 0.102-0.359h-0.172c0 0.080-0.017 0.152-0.050 0.217l-0.229-0.27 0.081-0.059c0.049-0.033 0.090-0.074 0.122-0.122l0.001-0.002c0.023-0.038 0.037-0.085 0.037-0.135 0-0.001 0-0.001 0-0.002v0c0-0.001 0-0.003 0-0.005 0-0.073-0.032-0.138-0.083-0.183l-0-0c-0.053-0.048-0.123-0.077-0.2-0.077-0.004 0-0.008 0-0.012 0l0.001-0c-0.095 0-0.171 0.027-0.228 0.081s-0.085 0.127-0.085 0.22c0 0.038 0.009 0.077 0.027 0.118 0.019 0.041 0.051 0.090 0.097 0.148-0.088 0.063-0.147 0.117-0.176 0.163zM16.492 17.677c-0.051 0.041-0.116 0.066-0.187 0.067h-0c-0.003 0-0.006 0-0.010 0-0.051 0-0.097-0.020-0.132-0.052l0 0c-0.033-0.032-0.053-0.077-0.053-0.127 0-0.002 0-0.005 0-0.007l-0 0c0-0.063 0.033-0.12 0.098-0.169l0.025-0.018 0.259 0.305zM16.279 17.152c-0.056-0.069-0.084-0.126-0.084-0.172 0-0.040 0.012-0.072 0.034-0.098 0.021-0.024 0.052-0.039 0.087-0.039 0.002 0 0.003 0 0.005 0h-0c0.001-0 0.003-0 0.004-0 0.033 0 0.062 0.013 0.084 0.033l-0-0c0.023 0.022 0.035 0.048 0.035 0.079 0 0.001 0 0.003 0 0.004 0 0.044-0.019 0.084-0.050 0.111l-0 0-0.025 0.020-0.090 0.062zM18.208 17.795c0.081-0.071 0.128-0.17 0.14-0.296h-0.205c-0.011 0.085-0.037 0.145-0.077 0.181s-0.102 0.055-0.182 0.055c-0.088 0-0.156-0.034-0.202-0.101s-0.069-0.165-0.069-0.293v-0.105c0.001-0.127 0.026-0.222 0.073-0.287s0.117-0.098 0.207-0.098c0.077 0 0.135 0.019 0.175 0.057s0.065 0.099 0.075 0.184h0.205c-0.013-0.13-0.059-0.23-0.139-0.301s-0.185-0.107-0.316-0.107c-0.097 0-0.183 0.023-0.257 0.069-0.074 0.048-0.133 0.115-0.169 0.194l-0.001 0.003c-0.038 0.083-0.060 0.18-0.060 0.282 0 0.005 0 0.010 0 0.015l-0-0.001v0.111c0.002 0.109 0.022 0.205 0.061 0.287s0.095 0.146 0.166 0.191c0.072 0.045 0.156 0.067 0.25 0.067 0.135 0 0.243-0.035 0.325-0.106zM19.418 17.629c0.040-0.088 0.060-0.19 0.060-0.306v-0.066c0-0.004 0-0.008 0-0.013 0-0.105-0.023-0.205-0.064-0.296l0.002 0.004c-0.038-0.084-0.097-0.152-0.171-0.199l-0.002-0.001c-0.075-0.047-0.16-0.070-0.257-0.070s-0.182 0.023-0.257 0.071c-0.074 0.047-0.132 0.114-0.173 0.203-0.039 0.086-0.061 0.186-0.061 0.291 0 0.005 0 0.010 0 0.015l-0-0.001v0.067c0.001 0.113 0.021 0.213 0.062 0.3s0.099 0.154 0.174 0.201c0.075 0.047 0.161 0.070 0.257 0.070 0.097 0 0.183-0.023 0.257-0.070s0.132-0.115 0.172-0.202zM19.198 16.959c0.050 0.070 0.075 0.171 0.075 0.302v0.062c0 0.133-0.025 0.235-0.074 0.304s-0.119 0.104-0.21 0.104c-0.003 0-0.006 0-0.008 0-0.084 0-0.158-0.042-0.202-0.106l-0.001-0.001c-0.051-0.071-0.076-0.172-0.076-0.302v-0.068c0.001-0.127 0.027-0.226 0.076-0.295 0.045-0.064 0.118-0.105 0.2-0.105 0.003 0 0.006 0 0.009 0l-0-0c0.091 0 0.162 0.035 0.211 0.105z"></path>
</symbol>
<symbol id="icon-group1" viewBox="0 0 35 20">
<path  d="M16.705 1.978h-0.046c-0.070-0.004-0.14-0.006-0.21-0.008h-0.152c-0.132 0-0.267 0.003-0.401 0.010-0.005-0-0.010-0.001-0.015-0.001s-0.011 0-0.016 0.001l0.001-0c-1.287 0.075-2.482 0.397-3.562 0.919l0.056-0.025-0.144 0.069v7.381l0.337-0.115c0.296-0.102 0.611-0.193 0.938-0.278 0.806-0.216 1.734-0.346 2.691-0.358l0.008-0v0.97c-0.121 0.001-0.238 0.004-0.355 0.010h-0.028c-0.758 0.043-1.468 0.156-2.151 0.335l0.075-0.017c-0.939 0.239-1.763 0.569-2.528 0.992l0.054-0.027v-9.466c0.747-0.444 1.611-0.806 2.526-1.040l0.069-0.015c0.733-0.197 1.575-0.312 2.443-0.315h0.144c0.17 0.004 0.337 0.012 0.493 0.024 0.411 0.029 0.819 0.094 1.218 0.194v0.954c-0.34-0.083-0.743-0.147-1.156-0.177l-0.025-0.001-0.024-0.002c-0.082-0.007-0.165-0.014-0.241-0.014zM18.384 2.954c0.212 0.016 0.431 0.024 0.653 0.024 0.915-0.004 1.8-0.124 2.644-0.346l-0.073 0.016c0.939-0.24 1.762-0.57 2.527-0.992l-0.055 0.028v9.297c-0.747 0.444-1.611 0.806-2.526 1.040l-0.069 0.015c-0.733 0.196-1.575 0.311-2.443 0.315h-0.002c-0.018 0-0.039 0-0.060 0-0.637 0-1.256-0.080-1.847-0.23l0.052 0.011v-9.357c0.143 0.033 0.291 0.064 0.441 0.089 0.246 0.042 0.506 0.072 0.759 0.091zM23.116 3.026l-0.337 0.113c-0.31 0.104-0.623 0.198-0.938 0.281-0.84 0.225-1.805 0.356-2.8 0.359h-0.002c-0.22 0-0.422-0.006-0.618-0.019l-0.269-0.018v7.592l0.231 0.020c0.214 0.019 0.435 0.028 0.658 0.028 0.786-0.003 1.545-0.107 2.269-0.3l-0.063 0.014c0.662-0.168 1.236-0.38 1.78-0.644l-0.055 0.024 0.144-0.069v-7.383z"></path>
<path  d="M11.912 15.071c-0.091-0.094-0.217-0.152-0.358-0.152-0.006 0-0.012 0-0.018 0l0.001-0c-0.002-0-0.005-0-0.008-0-0.075 0-0.147 0.015-0.213 0.042l0.004-0.001c-0.128 0.051-0.227 0.152-0.276 0.277l-0.001 0.003c-0.027 0.067-0.040 0.138-0.039 0.209v1.265c-0.003 0.089 0.014 0.178 0.050 0.259 0.030 0.065 0.073 0.123 0.127 0.17 0.050 0.042 0.11 0.073 0.173 0.090 0.062 0.017 0.125 0.026 0.189 0.026 0.070 0.001 0.14-0.014 0.204-0.044 0.19-0.084 0.32-0.271 0.32-0.488v-0.141h-0.331v0.113c0 0.002 0 0.005 0 0.008 0 0.038-0.007 0.074-0.020 0.107l0.001-0.002c-0.011 0.028-0.028 0.052-0.048 0.071l-0 0c-0.038 0.029-0.086 0.047-0.138 0.048h-0c-0.006 0.001-0.013 0.001-0.019 0.001-0.056 0-0.105-0.027-0.135-0.069l-0-0c-0.028-0.045-0.044-0.099-0.044-0.157 0-0.004 0-0.009 0-0.013l-0 0.001v-1.179c-0.002-0.065 0.012-0.13 0.041-0.189 0.031-0.047 0.083-0.077 0.142-0.077 0.007 0 0.014 0 0.020 0.001l-0.001-0c0.002-0 0.004-0 0.006-0 0.058 0 0.109 0.028 0.141 0.071l0 0c0.034 0.045 0.055 0.101 0.055 0.163 0 0.003-0 0.005-0 0.007v-0 0.109h0.327v-0.129c0-0.002 0-0.004 0-0.006 0-0.078-0.015-0.152-0.042-0.22l0.001 0.004c-0.026-0.069-0.063-0.128-0.111-0.178l0 0zM13.876 15.057c-0.101-0.086-0.232-0.138-0.376-0.139h-0c-0.067 0-0.134 0.012-0.197 0.036-0.136 0.049-0.244 0.149-0.302 0.277l-0.001 0.003c-0.033 0.077-0.050 0.161-0.048 0.245v1.213c-0.002 0.085 0.014 0.17 0.048 0.248 0.030 0.065 0.073 0.123 0.128 0.17 0.051 0.047 0.11 0.083 0.175 0.107 0.063 0.023 0.13 0.035 0.197 0.036 0.144-0 0.276-0.054 0.377-0.143l-0.001 0.001c0.053-0.047 0.095-0.105 0.125-0.17 0.034-0.078 0.050-0.163 0.048-0.248v-1.213c0-0.003 0-0.007 0-0.011 0-0.085-0.018-0.165-0.050-0.238l0.001 0.004c-0.031-0.069-0.073-0.128-0.124-0.177l-0-0zM13.722 16.691c0.001 0.006 0.001 0.012 0.001 0.019 0 0.062-0.025 0.117-0.066 0.157l-0 0c-0.042 0.035-0.096 0.057-0.156 0.057s-0.114-0.021-0.156-0.057l0 0c-0.041-0.039-0.067-0.095-0.067-0.156 0-0.007 0-0.014 0.001-0.020l-0 0.001v-1.213c-0.001-0.006-0.001-0.012-0.001-0.019 0-0.061 0.025-0.117 0.066-0.157l0-0c0.042-0.035 0.096-0.057 0.156-0.057s0.114 0.021 0.156 0.057l-0-0c0.041 0.040 0.066 0.095 0.066 0.156 0 0.007-0 0.013-0.001 0.020l0-0.001v1.213zM16.456 17.233v-2.297h-0.318l-0.418 1.216h-0.006l-0.421-1.215h-0.314v2.296h0.328v-1.397h0.006l0.321 0.987h0.164l0.324-0.987h0.006v1.397h0.328zM18.319 15.098c-0.050-0.057-0.114-0.1-0.185-0.126-0.067-0.023-0.145-0.036-0.225-0.036-0.004 0-0.009 0-0.013 0h-0.487v2.297h0.327v-0.897h0.168c0.102 0.005 0.204-0.017 0.295-0.063 0.075-0.042 0.136-0.102 0.178-0.173l0.001-0.002c0.038-0.061 0.063-0.129 0.075-0.2 0.011-0.072 0.018-0.156 0.018-0.24 0-0.007-0-0.014-0-0.022l0 0.001c0.003-0.11-0.008-0.221-0.032-0.328-0.023-0.083-0.065-0.154-0.121-0.211l0 0zM18.151 15.798c-0.001 0.044-0.013 0.085-0.031 0.121l0.001-0.002c-0.019 0.035-0.048 0.063-0.083 0.080l-0.001 0c-0.040 0.019-0.088 0.029-0.137 0.029-0.006 0-0.012-0-0.018-0l0.001 0h-0.149v-0.781h0.169c0.005-0 0.010-0 0.016-0 0.048 0 0.093 0.011 0.134 0.030l-0.002-0.001c0.034 0.020 0.060 0.049 0.076 0.084l0 0.001c0.018 0.040 0.028 0.084 0.029 0.128v0.153c0 0.053 0.003 0.109 0 0.158h-0.003zM19.869 14.937h-0.268l-0.506 2.297h0.327l0.096-0.493h0.446l0.096 0.493h0.327l-0.518-2.297zM19.567 16.427l0.161-0.832h0.006l0.16 0.832h-0.327zM21.983 16.32h-0.006l-0.494-1.383h-0.315v2.297h0.327v-1.381h0.007l0.5 1.381h0.308v-2.296h-0.327v1.383zM23.983 14.937l-0.263 0.913h-0.007l-0.263-0.913h-0.346l0.449 1.326v0.97h0.327v-0.97l0.449-1.326h-0.347zM11 17.882h0.158v0.442h0.107v-0.443h0.157v-0.091h-0.421v0.091zM12.326 17.791l-0.207 0.533h0.114l0.044-0.121h0.213l0.045 0.121h0.117l-0.212-0.533h-0.114zM12.309 18.113l0.072-0.198 0.072 0.198h-0.145zM13.636 18.127h0.123v0.069c-0.034 0.028-0.079 0.045-0.127 0.045h-0c-0.002 0-0.005 0-0.008 0-0.043 0-0.081-0.020-0.105-0.051l-0-0c-0.025-0.035-0.040-0.080-0.040-0.127 0-0.004 0-0.008 0-0.013l-0 0.001c0-0.119 0.051-0.178 0.153-0.178 0.003-0 0.007-0.001 0.012-0.001 0.053 0 0.097 0.036 0.109 0.085l0 0.001 0.105-0.021c-0.023-0.104-0.098-0.157-0.226-0.157-0.002-0-0.005-0-0.007-0-0.069 0-0.132 0.026-0.179 0.069l0-0c-0.048 0.047-0.077 0.113-0.077 0.185 0 0.007 0 0.014 0.001 0.021l-0-0.001c-0 0.004-0 0.008-0 0.012 0 0.072 0.026 0.137 0.069 0.188l-0-0c0.047 0.049 0.113 0.079 0.186 0.079 0.006 0 0.011-0 0.017-0.001l-0.001 0c0.003 0 0.006 0 0.009 0 0.084 0 0.16-0.032 0.218-0.085l-0 0v-0.21h-0.231v0.090zM14.974 17.791h-0.108v0.533h0.373v-0.091h-0.265v-0.443zM16.106 17.791h-0.108v0.533h0.108v-0.533zM17.212 18.147l-0.218-0.356h-0.104v0.533h0.1v-0.348l0.214 0.348h0.107v-0.533h-0.099v0.356zM18.212 18.089h0.266v-0.091h-0.266v-0.117h0.286v-0.091h-0.394v0.533h0.405v-0.091h-0.297v-0.144zM20.637 18.001h-0.21v-0.21h-0.107v0.533h0.107v-0.233h0.21v0.233h0.107v-0.533h-0.107v0.21zM21.643 18.089h0.267v-0.091h-0.267v-0.117h0.287v-0.091h-0.393v0.533h0.404v-0.091h-0.297v-0.144zM23.008 18.089c0.093-0.015 0.14-0.064 0.14-0.148 0.001-0.004 0.001-0.010 0.001-0.015 0-0.043-0.021-0.080-0.053-0.103l-0-0c-0.039-0.020-0.086-0.032-0.135-0.032-0.007 0-0.015 0-0.022 0.001l0.001-0h-0.226v0.533h0.107v-0.223h0.021c0.003-0 0.006-0 0.009-0 0.021 0 0.041 0.005 0.059 0.013l-0.001-0c0.016 0.010 0.029 0.023 0.038 0.039l0.116 0.169h0.128l-0.065-0.104c-0.029-0.052-0.069-0.095-0.117-0.127l-0.001-0.001zM22.9 18.015h-0.079v-0.134h0.084c0.007-0.001 0.015-0.001 0.023-0.001 0.031 0 0.060 0.005 0.088 0.014l-0.002-0.001c0.014 0.013 0.023 0.031 0.023 0.052 0 0.023-0.011 0.043-0.028 0.056l-0 0c-0.027 0.008-0.057 0.013-0.089 0.013-0.007 0-0.014-0-0.021-0.001l0.001 0zM24.037 18.089h0.265v-0.091h-0.265v-0.117h0.287v-0.091h-0.395v0.533h0.405v-0.091h-0.297v-0.144z"></path>
</symbol>
<symbol id="icon-group2" viewBox="0 0 35 20">
<path  d="M12.135 16.367c0.005 0 0.011 0.001 0.015 0.003s0.009 0.005 0.013 0.008l-0-0 0.073 0.069c-0.057 0.056-0.126 0.101-0.205 0.132-0.081 0.030-0.174 0.048-0.271 0.048-0.007 0-0.013-0-0.020-0l0.001 0c-0.093 0.002-0.186-0.013-0.272-0.044-0.080-0.029-0.148-0.071-0.206-0.125l0 0c-0.056-0.053-0.101-0.117-0.131-0.189l-0.001-0.004c-0.030-0.071-0.047-0.154-0.047-0.24 0-0.002 0-0.005 0-0.007v0c-0-0.004-0-0.008-0-0.013 0-0.17 0.073-0.322 0.19-0.427l0.001-0c0.062-0.054 0.137-0.097 0.218-0.126 0.090-0.030 0.185-0.045 0.281-0.044 0.005-0 0.011-0 0.017-0 0.087 0 0.171 0.015 0.249 0.042l-0.005-0.002c0.072 0.027 0.138 0.065 0.196 0.112l-0.061 0.074c-0.004 0.005-0.009 0.010-0.015 0.013l-0 0c-0.006 0.004-0.013 0.006-0.021 0.006-0.001 0-0.002-0-0.004-0l0 0c-0.010-0-0.019-0.003-0.027-0.008l0 0-0.032-0.020-0.046-0.025c-0.042-0.020-0.090-0.036-0.14-0.044l-0.003-0c-0.030-0.005-0.065-0.008-0.1-0.008-0.003 0-0.006 0-0.008 0h0c-0.002-0-0.004-0-0.007-0-0.070 0-0.137 0.012-0.199 0.035l0.004-0.001c-0.060 0.021-0.114 0.053-0.158 0.093-0.045 0.043-0.080 0.093-0.103 0.148s-0.037 0.121-0.037 0.189c0 0.002 0 0.005 0 0.007v-0c-0.001 0.068 0.011 0.135 0.037 0.199 0.024 0.058 0.058 0.107 0.101 0.148l0 0c0.042 0.040 0.093 0.072 0.151 0.092 0.059 0.021 0.123 0.032 0.187 0.032 0.037 0 0.074-0.002 0.111-0.006 0.092-0.010 0.175-0.047 0.241-0.103l-0.001 0.001c0.009-0.008 0.021-0.012 0.034-0.013h0zM14.235 16.018c0 0.002 0 0.005 0 0.007 0 0.086-0.018 0.168-0.051 0.242l0.002-0.004c-0.032 0.075-0.079 0.139-0.136 0.19l-0.001 0c-0.060 0.054-0.132 0.096-0.211 0.124l-0.004 0.001c-0.083 0.028-0.178 0.044-0.276 0.044s-0.194-0.016-0.283-0.046l0.006 0.002c-0.082-0.029-0.153-0.072-0.214-0.126l0.001 0.001c-0.058-0.053-0.105-0.117-0.137-0.189l-0.001-0.004c-0.031-0.073-0.049-0.157-0.049-0.246s0.018-0.173 0.051-0.25l-0.002 0.004c0.031-0.072 0.078-0.138 0.138-0.193 0.061-0.053 0.133-0.094 0.213-0.121 0.082-0.029 0.177-0.045 0.276-0.045s0.194 0.016 0.282 0.047l-0.006-0.002c0.081 0.028 0.154 0.071 0.214 0.125s0.107 0.12 0.137 0.19c0.034 0.079 0.050 0.163 0.049 0.247zM14.044 16.018c0-0.003 0-0.007 0-0.010 0-0.067-0.013-0.132-0.036-0.191l0.001 0.004c-0.044-0.114-0.135-0.201-0.248-0.24l-0.003-0.001c-0.060-0.021-0.129-0.032-0.201-0.032s-0.141 0.012-0.205 0.034l0.005-0.001c-0.060 0.021-0.111 0.053-0.154 0.094l0-0c-0.042 0.040-0.076 0.090-0.097 0.145l-0.001 0.003c-0.022 0.059-0.035 0.127-0.035 0.197s0.013 0.139 0.036 0.201l-0.001-0.004c0.044 0.114 0.135 0.201 0.249 0.239l0.003 0.001c0.129 0.042 0.272 0.042 0.402 0 0.058-0.020 0.111-0.052 0.153-0.092 0.044-0.043 0.077-0.093 0.097-0.148 0.025-0.063 0.036-0.13 0.035-0.197zM15.667 16.225l0.019 0.044c0.007-0.016 0.013-0.030 0.021-0.044s0.015-0.029 0.024-0.043l0.464-0.734c0.009-0.013 0.017-0.021 0.027-0.023s0.021-0.004 0.032-0.004c0.002 0 0.004 0 0.006 0l-0-0h0.137v1.193h-0.163v-0.914c-0-0.006-0.001-0.013-0.001-0.021s0-0.014 0.001-0.022l-0 0.001-0.468 0.744c-0.006 0.012-0.016 0.021-0.027 0.027l-0 0c-0.011 0.006-0.025 0.010-0.039 0.010-0 0-0.001 0-0.001 0h-0.026c-0 0-0.001 0-0.001 0-0.014 0-0.028-0.004-0.039-0.010l0 0c-0.011-0.006-0.021-0.016-0.027-0.027l-0-0-0.481-0.749v0.958h-0.157v-1.191h0.137c0.002-0 0.004-0 0.006-0 0.011 0 0.022 0.002 0.033 0.004l-0.001-0c0.011 0.005 0.020 0.013 0.025 0.023l0.474 0.734c0.009 0.013 0.017 0.028 0.024 0.043zM17.415 16.166v0.447h-0.181v-1.191h0.405c0.077-0.001 0.153 0.008 0.226 0.026 0.059 0.015 0.113 0.040 0.16 0.074 0.039 0.031 0.070 0.070 0.090 0.115l0.001 0.002c0.021 0.049 0.032 0.101 0.031 0.153 0 0.002 0 0.005 0 0.008 0 0.108-0.051 0.203-0.131 0.264l-0.001 0.001c-0.047 0.036-0.101 0.063-0.161 0.079-0.061 0.018-0.132 0.028-0.205 0.028-0.005 0-0.010-0-0.015-0l-0.219-0.003zM17.415 16.038h0.22c0.048 0.001 0.095-0.006 0.141-0.018 0.039-0.011 0.073-0.029 0.102-0.052l-0.001 0.001c0.051-0.042 0.083-0.106 0.083-0.177 0-0.001 0-0.002-0-0.003v0c0-0.004 0-0.008 0-0.013 0-0.031-0.007-0.059-0.019-0.085l0.001 0.001c-0.015-0.032-0.037-0.060-0.063-0.081l-0-0c-0.061-0.041-0.135-0.065-0.216-0.065-0.010 0-0.020 0-0.030 0.001l0.001-0h-0.22v0.491zM19.858 16.614h-0.143c-0.001 0-0.002 0-0.003 0-0.014 0-0.027-0.004-0.038-0.011l0 0c-0.010-0.007-0.018-0.016-0.024-0.027l-0-0-0.123-0.288h-0.621l-0.128 0.288c-0.005 0.011-0.013 0.020-0.022 0.027l-0 0c-0.011 0.008-0.024 0.012-0.039 0.012-0.001 0-0.002-0-0.002-0h-0.143l0.545-1.193h0.189l0.553 1.193zM18.958 16.171h0.513l-0.217-0.486c-0.016-0.037-0.030-0.074-0.041-0.112l-0.021 0.062c-0.007 0.021-0.014 0.038-0.021 0.054l0.001-0.003-0.214 0.485zM20.643 15.427c0.011 0.005 0.020 0.012 0.027 0.021l0.795 0.9v-0.926h0.163v1.193h-0.091c-0.001 0-0.001 0-0.002 0-0.013 0-0.025-0.003-0.036-0.008l0.001 0c-0.011-0.006-0.021-0.013-0.029-0.022l-0-0-0.794-0.899c0 0.006 0.001 0.013 0.001 0.021s-0 0.014-0.001 0.021l0-0.001v0.887h-0.163v-1.193h0.096c0.011 0 0.022 0.002 0.033 0.006zM22.968 16.14v0.474h-0.182v-0.473l-0.503-0.719h0.163c0.001-0 0.003-0 0.004-0 0.013 0 0.025 0.004 0.035 0.010l-0-0c0.010 0.008 0.018 0.017 0.025 0.027l0.314 0.464c0.022 0.030 0.040 0.065 0.054 0.102l0.001 0.003 0.024-0.051c0.009-0.019 0.019-0.037 0.031-0.054l0.31-0.467c0.007-0.010 0.014-0.018 0.023-0.025l0-0c0.010-0.007 0.022-0.012 0.036-0.012 0.001 0 0.002 0 0.004 0h0.165l-0.503 0.722zM15.577 13.419c0.079 0.009 0.159 0.016 0.24 0.022 1.227-0.477 2.264-1.257 2.983-2.243s1.087-2.134 1.059-3.301l-1.351-1.174c0.275 1.242 0.146 2.527-0.371 3.709s-1.403 2.217-2.559 2.987z"></path>
<path  d="M15.095 13.364l0.036 0.007c1.235-0.768 2.176-1.839 2.702-3.076s0.613-2.583 0.25-3.863l-1.925-1.672c0.778 1.375 1.092 2.913 0.903 4.437s-0.87 2.969-1.967 4.168zM21.623 9.275c-0.327 1.282-1.121 2.439-2.265 3.298-0.312 0.238-0.665 0.461-1.036 0.652l-0.040 0.019c0.931-0.238 1.787-0.658 2.501-1.229s1.269-1.276 1.62-2.062l-0.781-0.678z"></path>
<path  d="M21.316 9.087l-1.111-0.966c-0.021 1.101-0.382 2.177-1.043 3.116s-1.601 1.707-2.72 2.224h0.005c0.249 0 0.498-0.013 0.746-0.039 1.046-0.371 1.97-0.961 2.689-1.718s1.212-1.656 1.434-2.618zM15.255 4.053l-1.326-1.153c-1.185 0.398-2.205 1.098-2.925 2.007s-1.107 1.987-1.111 3.091c0.004 1.22 0.477 2.404 1.343 3.364s2.076 1.642 3.438 1.938c1.216-1.287 1.928-2.878 2.033-4.541s-0.404-3.312-1.452-4.707zM24.38 8.909c-0.005-1.447-0.669-2.834-1.847-3.858s-2.775-1.6-4.441-1.605c-0.004 0-0.009-0-0.013-0-0.801 0-1.57 0.133-2.287 0.379l0.050-0.015 8.118 7.054c0.265-0.575 0.419-1.247 0.42-1.955v-0z"></path>
</symbol>
<symbol id="icon-group3" viewBox="0 0 35 20">
<path  d="M8.049 7.034h-0.001c-0.799 0-1.447 0.576-1.447 1.286v0.001c0 0.71 0.648 1.286 1.447 1.286h0.001c0.799 0 1.447-0.576 1.447-1.286v-0.001c0-0.711-0.648-1.287-1.447-1.287zM18.732 6.623c-0.002-0.987-0.444-1.933-1.229-2.63s-1.849-1.091-2.959-1.093c-1.111 0.002-2.175 0.395-2.961 1.092s-1.227 1.644-1.23 2.631v5.441s8.378-0.829 8.379-5.44v-0.001zM3.667 13.85c0.002 0.687 0.31 1.344 0.856 1.83s1.286 0.759 2.059 0.761c0.772-0.002 1.512-0.276 2.059-0.761s0.854-1.143 0.856-1.829v-3.786s-5.829 0.578-5.829 3.785zM6.581 14.528c-0.151 0-0.298-0.040-0.424-0.114-0.122-0.072-0.218-0.176-0.279-0.3l-0.002-0.004c-0.037-0.076-0.058-0.165-0.058-0.259 0-0.047 0.005-0.093 0.015-0.137l-0.001 0.004c0.029-0.132 0.102-0.253 0.209-0.347s0.243-0.16 0.391-0.186c0.045-0.008 0.096-0.013 0.149-0.013 0.105 0 0.205 0.019 0.298 0.053l-0.006-0.002c0.14 0.051 0.259 0.138 0.343 0.25s0.129 0.243 0.129 0.377c0 0.089-0.019 0.178-0.057 0.261-0.041 0.087-0.097 0.16-0.165 0.22l-0.001 0.001c-0.071 0.063-0.155 0.113-0.248 0.148-0.087 0.033-0.187 0.052-0.292 0.052-0 0-0 0-0.001 0h0v-0.003zM11.91 13.314v1.422h-0.293v-1.422h0.293zM12.477 13.921v0.229h-0.647v-0.228h0.647zM12.545 13.314v0.23h-0.715v-0.23h0.715zM13.883 13.991v0.068c0 0.004 0 0.008 0 0.013 0 0.099-0.016 0.195-0.046 0.285l0.002-0.006c-0.028 0.085-0.070 0.158-0.125 0.22l0.001-0.001c-0.053 0.060-0.117 0.106-0.191 0.138s-0.155 0.048-0.245 0.048c-0.002 0-0.005 0-0.007 0-0.086 0-0.168-0.018-0.242-0.050l0.004 0.002c-0.075-0.033-0.139-0.080-0.191-0.137l-0-0.001c-0.054-0.062-0.097-0.135-0.125-0.215l-0.001-0.005c-0.028-0.083-0.044-0.179-0.044-0.278 0-0.004 0-0.009 0-0.013v0.001-0.068c0-0.109 0.015-0.206 0.044-0.291s0.071-0.159 0.124-0.22c0.052-0.059 0.116-0.106 0.188-0.137l0.003-0.001c0.074-0.032 0.156-0.048 0.245-0.048s0.171 0.016 0.245 0.048c0.074 0.032 0.138 0.078 0.191 0.139 0.054 0.061 0.096 0.134 0.125 0.22s0.045 0.182 0.045 0.291zM13.587 14.059v-0.069c0-0.076-0.007-0.142-0.020-0.199-0.012-0.055-0.033-0.103-0.062-0.146l0.001 0.002c-0.025-0.037-0.058-0.067-0.096-0.087l-0.001-0.001c-0.037-0.019-0.080-0.030-0.127-0.030-0.002 0-0.003 0-0.005 0h0c-0.050 0-0.093 0.010-0.132 0.030-0.040 0.021-0.072 0.051-0.096 0.087l-0.001 0.001c-0.027 0.042-0.047 0.090-0.059 0.142l-0.001 0.003c-0.013 0.057-0.021 0.121-0.021 0.188 0 0.004 0 0.008 0 0.012v-0.001 0.069c0 0.075 0.007 0.141 0.021 0.199s0.034 0.106 0.060 0.146c0.025 0.037 0.058 0.067 0.096 0.088l0.001 0.001c0.038 0.020 0.082 0.030 0.132 0.030s0.093-0.010 0.132-0.030c0.040-0.022 0.072-0.052 0.096-0.088l0.001-0.001c0.027-0.042 0.047-0.091 0.059-0.143l0.001-0.003c0.014-0.058 0.021-0.124 0.021-0.199zM14.834 14.364c0-0.001 0-0.002 0-0.003 0-0.023-0.004-0.046-0.012-0.067l0 0.001c-0.009-0.023-0.023-0.042-0.041-0.056l-0-0c-0.025-0.020-0.053-0.038-0.083-0.051l-0.002-0.001c-0.038-0.018-0.085-0.035-0.133-0.050l-0.009-0.002c-0.075-0.024-0.136-0.048-0.195-0.075l0.011 0.005c-0.058-0.026-0.108-0.057-0.154-0.092l0.002 0.001c-0.042-0.033-0.076-0.074-0.102-0.12l-0.001-0.002c-0.024-0.045-0.037-0.098-0.037-0.154 0-0.003 0-0.005 0-0.008v0c-0-0.001-0-0.003-0-0.004 0-0.057 0.014-0.111 0.040-0.158l-0.001 0.002c0.026-0.049 0.063-0.091 0.109-0.125s0.102-0.062 0.166-0.081c0.065-0.019 0.135-0.028 0.212-0.028 0.105 0 0.197 0.019 0.274 0.057s0.139 0.089 0.182 0.155c0.044 0.066 0.066 0.141 0.066 0.226h-0.291c0-0.001 0-0.003 0-0.005 0-0.038-0.010-0.075-0.027-0.106l0.001 0.001c-0.018-0.033-0.045-0.058-0.077-0.075l-0.001-0c-0.035-0.018-0.077-0.028-0.121-0.028-0.003 0-0.007 0-0.010 0l0-0c-0.003-0-0.007-0-0.010-0-0.042 0-0.082 0.009-0.119 0.024l0.002-0.001c-0.032 0.013-0.058 0.034-0.076 0.061l-0 0.001c-0.016 0.024-0.025 0.053-0.025 0.084 0 0.001 0 0.002 0 0.002v-0c0 0.024 0.006 0.046 0.018 0.065 0.015 0.022 0.033 0.040 0.054 0.054l0.001 0c0.024 0.017 0.054 0.033 0.089 0.048s0.076 0.030 0.122 0.044c0.077 0.023 0.145 0.050 0.204 0.079 0.057 0.027 0.106 0.060 0.149 0.099l-0.001-0.001c0.040 0.037 0.070 0.078 0.090 0.124s0.030 0.099 0.030 0.157c0 0.062-0.012 0.117-0.036 0.166s-0.059 0.090-0.104 0.124-0.1 0.060-0.163 0.077c-0.063 0.018-0.133 0.027-0.212 0.027-0.070 0-0.14-0.009-0.208-0.027-0.071-0.020-0.133-0.049-0.189-0.086l0.002 0.001c-0.055-0.038-0.099-0.086-0.132-0.143l-0.001-0.002c-0.033-0.059-0.050-0.128-0.050-0.208h0.294c0 0.044 0.007 0.082 0.021 0.112s0.033 0.055 0.057 0.074l0 0c0.026 0.019 0.056 0.033 0.088 0.041l0.002 0c0.035 0.008 0.073 0.013 0.115 0.013 0.003 0 0.007 0 0.010 0 0.041 0 0.081-0.008 0.117-0.023l-0.002 0.001c0.058-0.023 0.098-0.079 0.098-0.144 0-0.001 0-0.001-0-0.002v0zM15.962 13.314v1.422h-0.292v-1.422h0.292zM16.399 13.314v0.23h-1.16v-0.23h1.16zM17.52 14.507v0.229h-0.757v-0.229h0.757zM16.859 13.314v1.422h-0.293v-1.422h0.293zM17.422 13.893v0.223h-0.658v-0.223h0.658zM17.519 13.314v0.23h-0.756v-0.23h0.756zM17.691 13.314h0.53c0.109 0 0.202 0.017 0.281 0.049s0.139 0.081 0.181 0.144c0.043 0.064 0.064 0.142 0.064 0.235 0 0.076-0.013 0.142-0.039 0.197s-0.062 0.1-0.108 0.135l-0.001 0.001c-0.047 0.036-0.101 0.065-0.159 0.085l-0.004 0.001-0.093 0.049h-0.461l-0.002-0.229h0.343c0.003 0 0.006 0 0.009 0 0.043 0 0.084-0.010 0.12-0.028l-0.002 0.001c0.033-0.017 0.059-0.043 0.076-0.075l0-0.001c0.017-0.032 0.027-0.069 0.027-0.109 0-0.002-0-0.003-0-0.005v0c0-0.002 0-0.004 0-0.006 0-0.041-0.010-0.079-0.026-0.114l0.001 0.002c-0.017-0.033-0.044-0.059-0.076-0.076l-0.001-0c-0.035-0.017-0.077-0.027-0.121-0.027-0.003 0-0.007 0-0.010 0l0-0h-0.237v1.193h-0.293v-1.422zM18.486 14.736l-0.324-0.634 0.31-0.002 0.328 0.622v0.013h-0.313zM20.024 14.229h-0.362v-0.229h0.362c0.004 0 0.008 0 0.012 0 0.045 0 0.088-0.010 0.127-0.028l-0.002 0.001c0.034-0.017 0.060-0.044 0.077-0.077l0-0.001c0.015-0.034 0.024-0.073 0.024-0.115s-0.009-0.081-0.025-0.117l0.001 0.002c-0.017-0.037-0.043-0.067-0.076-0.088l-0.001-0c-0.036-0.021-0.080-0.034-0.126-0.034-0.004 0-0.007 0-0.011 0l0.001-0h-0.261v1.193h-0.293v-1.422h0.554c0.111 0 0.207 0.020 0.286 0.061s0.141 0.095 0.184 0.165 0.063 0.151 0.063 0.241c0 0.092-0.021 0.171-0.063 0.238s-0.103 0.119-0.183 0.155c-0.080 0.037-0.175 0.055-0.286 0.055zM21.714 14.507v0.229h-0.757v-0.229h0.757zM21.053 13.314v1.422h-0.293v-1.422h0.293zM21.615 13.893v0.223h-0.659v-0.223h0.658zM21.713 13.314v0.23h-0.756v-0.23h0.756zM22.54 13.314v1.422h-0.292v-1.422h0.292zM22.977 13.314v0.23h-1.16v-0.23h1.16zM24.099 14.507v0.229h-0.757v-0.229h0.757zM23.437 13.314v1.422h-0.293v-1.422h0.293zM24 13.893v0.223h-0.658v-0.223h0.658zM24.098 13.314v0.23h-0.756v-0.23h0.756zM24.269 13.314h0.531c0.109 0 0.202 0.017 0.28 0.049s0.139 0.081 0.182 0.144c0.042 0.064 0.063 0.142 0.063 0.235 0 0.076-0.013 0.142-0.039 0.197s-0.062 0.1-0.108 0.135l-0.001 0.001c-0.047 0.036-0.101 0.065-0.159 0.085l-0.004 0.001-0.093 0.049h-0.461l-0.002-0.229h0.343c0.003 0 0.006 0 0.010 0 0.043 0 0.084-0.010 0.12-0.028l-0.002 0.001c0.033-0.017 0.059-0.043 0.076-0.075l0-0.001c0.017-0.032 0.027-0.069 0.027-0.109 0-0.002-0-0.003-0-0.005v0c0-0.002 0-0.004 0-0.006 0-0.041-0.009-0.079-0.026-0.114l0.001 0.002c-0.017-0.033-0.044-0.059-0.076-0.076l-0.001-0c-0.035-0.017-0.077-0.027-0.121-0.027-0.003 0-0.007 0-0.010 0l0-0h-0.237v1.193h-0.293v-1.423zM25.064 14.736l-0.324-0.634 0.309-0.002 0.328 0.622v0.013h-0.313zM26.291 14.364c0-0.001 0-0.002 0-0.003 0-0.023-0.004-0.046-0.012-0.067l0 0.001c-0.009-0.023-0.023-0.042-0.041-0.056l-0-0c-0.025-0.020-0.053-0.038-0.083-0.051l-0.002-0.001c-0.038-0.018-0.085-0.035-0.133-0.050l-0.009-0.002c-0.075-0.024-0.136-0.048-0.195-0.075l0.011 0.005c-0.058-0.026-0.108-0.057-0.154-0.092l0.002 0.001c-0.042-0.033-0.076-0.074-0.102-0.12l-0.001-0.002c-0.024-0.045-0.037-0.098-0.037-0.154 0-0.003 0-0.005 0-0.008v0c-0-0.001-0-0.003-0-0.004 0-0.057 0.014-0.111 0.040-0.158l-0.001 0.002c0.026-0.049 0.063-0.091 0.11-0.125s0.102-0.062 0.166-0.081c0.064-0.019 0.135-0.028 0.212-0.028 0.105 0 0.197 0.019 0.275 0.057s0.139 0.089 0.181 0.155c0.044 0.066 0.066 0.141 0.066 0.226h-0.291c0-0.001 0-0.003 0-0.005 0-0.038-0.010-0.075-0.027-0.106l0.001 0.001c-0.018-0.033-0.045-0.058-0.077-0.075l-0.001-0c-0.035-0.018-0.077-0.028-0.121-0.028-0.003 0-0.007 0-0.010 0l0-0c-0.003-0-0.007-0-0.010-0-0.042 0-0.082 0.009-0.119 0.024l0.002-0.001c-0.032 0.013-0.058 0.034-0.076 0.061l-0 0.001c-0.016 0.024-0.025 0.053-0.025 0.084 0 0.001 0 0.002 0 0.002v-0c0 0.024 0.006 0.046 0.018 0.065 0.015 0.022 0.033 0.040 0.054 0.054l0.001 0c0.024 0.017 0.054 0.033 0.089 0.048s0.076 0.030 0.122 0.044c0.077 0.023 0.145 0.050 0.204 0.079s0.109 0.062 0.148 0.099c0.040 0.037 0.070 0.078 0.090 0.124s0.030 0.099 0.030 0.157c0 0.062-0.012 0.117-0.036 0.166s-0.059 0.090-0.104 0.124-0.1 0.060-0.163 0.077c-0.063 0.018-0.133 0.027-0.212 0.027-0.070 0-0.14-0.009-0.208-0.027-0.071-0.020-0.133-0.049-0.189-0.086l0.002 0.001c-0.055-0.038-0.099-0.086-0.132-0.143l-0.001-0.002c-0.033-0.059-0.050-0.128-0.050-0.208h0.294c0 0.044 0.007 0.082 0.021 0.112s0.033 0.055 0.057 0.074l0 0c0.026 0.019 0.056 0.033 0.088 0.041l0.002 0c0.035 0.008 0.073 0.013 0.115 0.013 0.003 0 0.007 0 0.010 0 0.041 0 0.081-0.008 0.117-0.023l-0.002 0.001c0.058-0.023 0.098-0.079 0.098-0.144 0-0.001 0-0.001-0-0.002v0z"></path>
</symbol>
<symbol id="icon-group4" viewBox="0 0 35 20">
<path  d="M8.919 14.912c0.081 0.092 0.124 0.207 0.122 0.326 0 0.007 0.001 0.016 0.001 0.025 0 0.073-0.016 0.142-0.046 0.204l0.001-0.003c-0.035 0.074-0.084 0.136-0.145 0.185l-0.001 0.001c-0.138 0.095-0.309 0.152-0.493 0.152-0.020 0-0.040-0.001-0.060-0.002l0.003 0h-0.968v-2.063h0.948c0.017-0.001 0.036-0.002 0.056-0.002 0.174 0 0.337 0.052 0.473 0.141l-0.003-0.002c0.061 0.047 0.11 0.107 0.142 0.173s0.046 0.14 0.042 0.213c0.005 0.113-0.033 0.226-0.11 0.315-0.074 0.082-0.175 0.139-0.289 0.161 0.128 0.021 0.244 0.084 0.327 0.177zM7.784 14.6h0.405c0.092 0.006 0.183-0.018 0.258-0.069 0.029-0.024 0.053-0.055 0.068-0.090l0.001-0.002c0.012-0.027 0.019-0.058 0.019-0.090 0-0.007-0-0.014-0.001-0.020l0 0.001c0-0.005 0.001-0.011 0.001-0.017 0-0.033-0.007-0.065-0.020-0.094l0.001 0.002c-0.016-0.036-0.039-0.067-0.067-0.092l-0-0c-0.065-0.044-0.146-0.071-0.233-0.071-0.011 0-0.023 0-0.034 0.001l0.001-0h-0.399v0.542zM8.486 15.392c0.032-0.025 0.057-0.057 0.074-0.093l0.001-0.002c0.014-0.029 0.022-0.063 0.022-0.099 0-0.006-0-0.011-0.001-0.017l0 0.001c0-0.005 0-0.010 0-0.015 0-0.037-0.008-0.072-0.023-0.103l0.001 0.001c-0.018-0.038-0.044-0.070-0.075-0.095l-0.001-0c-0.070-0.047-0.156-0.075-0.248-0.075-0.010 0-0.019 0-0.028 0.001l0.001-0h-0.425v0.568h0.431c0.097 0.005 0.193-0.020 0.272-0.072zM10.857 15.799l-0.527-0.807h-0.198v0.807h-0.454v-2.064h0.859c0.018-0.001 0.040-0.002 0.061-0.002 0.202 0 0.389 0.067 0.539 0.179l-0.002-0.002c0.12 0.112 0.193 0.26 0.204 0.416 0.001 0.013 0.002 0.028 0.002 0.043 0 0.15-0.054 0.288-0.143 0.396l0.001-0.001c-0.107 0.11-0.248 0.185-0.406 0.209l-0.004 0 0.562 0.825h-0.493zM10.131 14.711h0.371c0.258 0 0.387-0.104 0.387-0.312 0-0.005 0-0.011 0-0.017 0-0.039-0.008-0.076-0.022-0.11l0.001 0.002c-0.017-0.042-0.042-0.078-0.074-0.107l-0-0c-0.070-0.053-0.16-0.085-0.256-0.085-0.013 0-0.025 0.001-0.038 0.002l0.002-0h-0.375l0.004 0.628zM13.337 15.383h-0.904l-0.16 0.416h-0.476l0.83-2.041h0.515l0.827 2.041h-0.475l-0.156-0.415zM13.216 15.071l-0.33-0.871-0.33 0.871h0.661zM16.441 15.799h-0.45l-1.010-1.403v1.403h-0.449v-2.064h0.449l1.010 1.412v-1.412h0.45v2.064zM19.011 15.305c-0.093 0.156-0.235 0.283-0.408 0.364-0.175 0.082-0.38 0.13-0.597 0.13-0.013 0-0.026-0-0.039-0.001l0.002 0h-0.801v-2.064h0.802c0.011-0 0.024-0 0.038-0 0.216 0 0.421 0.047 0.605 0.131l-0.009-0.004c0.172 0.080 0.314 0.205 0.407 0.36 0.093 0.168 0.141 0.353 0.141 0.542s-0.048 0.373-0.141 0.541zM18.496 15.256c0.122-0.128 0.198-0.301 0.199-0.492v-0c0-0.181-0.071-0.355-0.199-0.492-0.14-0.111-0.318-0.177-0.512-0.177-0.018 0-0.036 0.001-0.054 0.002l0.002-0h-0.313v1.336h0.313c0.015 0.001 0.034 0.002 0.052 0.002 0.194 0 0.373-0.067 0.514-0.178l-0.002 0.001zM13.619 2.256s5.813 2.009 5.69 4.917v4.918s-5.809-2.010-5.688-4.918l-0.002-4.917zM24.487 10.939c1.098-0.692 2.368-1.12 3.693-1.246v-1.54c-1.527 0.539-2.823 1.517-3.693 2.786z"></path>
<path  d="M23.827 11.403c0.898-1.657 2.456-2.935 4.353-3.572v-4.436s-8.278 2.862-8.103 7.003v7.002s0.369-0.128 0.949-0.368c0-0.224 0-0.45 0.027-0.677 0.171-1.922 1.169-3.703 2.775-4.952z"></path>
<path  d="M23.040 14.004c0.043-0.486 0.14-0.966 0.289-1.434-0.999 1.078-1.605 2.417-1.731 3.826-0.012 0.133-0.019 0.266-0.022 0.403 0.691-0.302 1.214-0.559 1.726-0.834l-0.133 0.065c-0.147-0.667-0.19-1.35-0.129-2.028zM23.369 14.030c-0.016 0.17-0.025 0.368-0.025 0.568 0 0.449 0.047 0.887 0.135 1.309l-0.007-0.041c2.262-1.239 4.803-3.154 4.705-5.468v-0.202c-1.616 0.166-3.128 0.812-4.303 1.841-0.259 0.583-0.439 1.258-0.503 1.968l-0.002 0.025z"></path>
</symbol>
<symbol id="icon-group5" viewBox="0 0 35 20">
<path  d="M17.808 9.136c-0.127-0.164-0.204-0.372-0.204-0.599 0-0.022 0.001-0.045 0.002-0.067l-0 0.003v-0.961c0-0.294 0.067-0.518 0.201-0.672s0.363-0.229 0.688-0.229c0.306 0 0.523 0.065 0.651 0.196 0.14 0.166 0.208 0.37 0.193 0.575v0.226h-0.547v-0.229c0.002-0.075-0.003-0.15-0.016-0.224-0.009-0.054-0.038-0.1-0.078-0.133l-0-0c-0.049-0.033-0.11-0.053-0.175-0.053-0.008 0-0.016 0-0.024 0.001l0.001-0c-0.007-0.001-0.015-0.001-0.024-0.001-0.069 0-0.133 0.021-0.186 0.056l0.001-0.001c-0.045 0.036-0.078 0.087-0.090 0.145l-0 0.002c-0.014 0.066-0.022 0.142-0.022 0.219 0 0.007 0 0.013 0 0.020l-0-0.001v1.166c-0.009 0.112 0.016 0.225 0.070 0.327 0.028 0.035 0.065 0.062 0.108 0.079l0.002 0.001c0.032 0.013 0.069 0.020 0.108 0.020 0.012 0 0.023-0.001 0.035-0.002l-0.001 0c0.007 0.001 0.015 0.001 0.023 0.001 0.064 0 0.123-0.020 0.171-0.054l-0.001 0.001c0.042-0.035 0.072-0.084 0.081-0.14l0-0.001c0.013-0.077 0.019-0.156 0.017-0.234v-0.237h0.547v0.216c0.001 0.017 0.002 0.037 0.002 0.057 0 0.208-0.072 0.398-0.192 0.549l0.001-0.002c-0.126 0.143-0.34 0.214-0.655 0.214s-0.553-0.076-0.687-0.235zM20.086 9.146c-0.138-0.15-0.207-0.368-0.207-0.656v-1.011c0-0.286 0.069-0.502 0.207-0.648s0.369-0.22 0.693-0.219c0.322 0 0.551 0.073 0.69 0.219s0.208 0.363 0.208 0.648v1.011c0 0.286-0.070 0.505-0.211 0.655s-0.369 0.226-0.687 0.226-0.554-0.076-0.693-0.225zM21.033 8.903c0.050-0.093 0.072-0.196 0.066-0.299v-1.238c0.001-0.010 0.001-0.022 0.001-0.033 0-0.095-0.024-0.185-0.067-0.263l0.001 0.003c-0.029-0.036-0.067-0.063-0.11-0.080l-0.002-0.001c-0.032-0.012-0.069-0.020-0.107-0.020-0.013 0-0.026 0.001-0.039 0.002l0.002-0c-0.011-0.001-0.024-0.002-0.037-0.002-0.039 0-0.076 0.007-0.11 0.020l0.002-0.001c-0.045 0.017-0.083 0.045-0.112 0.080l-0 0c-0.050 0.092-0.072 0.193-0.066 0.293v1.244c-0.007 0.103 0.016 0.206 0.066 0.299 0.032 0.031 0.071 0.057 0.115 0.074 0.042 0.017 0.090 0.026 0.141 0.026s0.099-0.010 0.143-0.027l-0.003 0.001c0.044-0.017 0.083-0.043 0.115-0.074v-0.006zM22.335 6.641h0.589l0.443 1.865 0.453-1.865h0.573l0.058 2.692h-0.424l-0.045-1.871-0.437 1.871h-0.34l-0.453-1.878-0.042 1.878h-0.428l0.053-2.692zM25.11 6.641h0.917c0.528 0 0.793 0.255 0.793 0.764 0 0.488-0.278 0.732-0.835 0.731h-0.312v1.196h-0.566l0.003-2.692zM25.894 7.792c0.056 0.006 0.113 0.002 0.167-0.013s0.103-0.039 0.145-0.072c0.065-0.091 0.094-0.198 0.082-0.304 0-0.009 0.001-0.019 0.001-0.030 0-0.076-0.010-0.15-0.029-0.221l0.001 0.006c-0.009-0.029-0.023-0.053-0.042-0.074l0 0c-0.020-0.022-0.043-0.040-0.070-0.053l-0.001-0.001c-0.066-0.028-0.143-0.044-0.223-0.044-0.010 0-0.021 0-0.031 0.001l0.001-0h-0.22v0.805h0.22zM27.637 6.641h0.608l0.624 2.692h-0.528l-0.123-0.621h-0.542l-0.127 0.621h-0.536l0.624-2.692zM28.156 8.401l-0.212-1.13-0.212 1.13h0.423zM29.372 6.641h0.397l0.758 1.536v-1.536h0.47v2.692h-0.377l-0.763-1.603v1.603h-0.486l0.001-2.692zM32.098 8.307l-0.631-1.662h0.531l0.385 1.068 0.361-1.068h0.52l-0.623 1.662v1.026h-0.543v-1.027zM18.683 10.511v0.141h-0.462v1.094h-0.194v-1.094h-0.464v-0.141h1.12zM20.131 11.745h-0.15c-0.001 0-0.003 0-0.004 0-0.014 0-0.027-0.004-0.038-0.012l0 0c-0.011-0.007-0.019-0.016-0.024-0.028l-0-0-0.134-0.293h-0.641l-0.133 0.293c-0.004 0.013-0.011 0.024-0.021 0.033l-0 0c-0.011 0.007-0.024 0.012-0.039 0.012-0.001 0-0.002-0-0.004-0h-0.149l0.566-1.235h0.197l0.573 1.23zM19.193 11.287h0.534l-0.227-0.503c-0.014-0.032-0.029-0.070-0.040-0.11l-0.002-0.006c-0.008 0.023-0.015 0.046-0.021 0.066l-0.021 0.052-0.224 0.502zM21.107 11.624c0.036 0.002 0.071 0.002 0.107 0 0.030-0.003 0.061-0.008 0.090-0.015 0.028-0.006 0.055-0.013 0.082-0.022 0.025-0.009 0.050-0.020 0.076-0.030v-0.278h-0.226c-0.001 0-0.001 0-0.002 0-0.011 0-0.021-0.004-0.029-0.010l0 0c-0.004-0.003-0.007-0.006-0.009-0.010l-0-0c-0.002-0.003-0.003-0.007-0.003-0.011 0-0 0-0.001 0-0.001v0-0.095h0.439v0.473c-0.069 0.043-0.148 0.077-0.233 0.099l-0.006 0.001c-0.047 0.012-0.094 0.020-0.142 0.026-0.055 0.005-0.11 0.008-0.165 0.008-0.002 0-0.005 0-0.007 0-0.1 0-0.195-0.017-0.284-0.048l0.006 0.002c-0.087-0.030-0.163-0.074-0.228-0.13l0.001 0.001c-0.061-0.054-0.11-0.119-0.144-0.192l-0.002-0.004c-0.033-0.073-0.052-0.158-0.052-0.248 0-0.003 0-0.006 0-0.008v0c-0-0.002-0-0.005-0-0.008 0-0.090 0.019-0.177 0.053-0.255l-0.002 0.004c0.032-0.073 0.082-0.14 0.146-0.196s0.142-0.099 0.227-0.128c0.097-0.032 0.2-0.047 0.303-0.046 0.053 0 0.105 0.003 0.157 0.011 0.046 0.007 0.091 0.017 0.135 0.031 0.040 0.013 0.078 0.029 0.113 0.049s0.068 0.041 0.099 0.064l-0.054 0.076c-0.005 0.007-0.011 0.013-0.018 0.017l-0 0c-0.008 0.004-0.016 0.007-0.026 0.007h-0c-0.013-0-0.025-0.004-0.035-0.010l0 0c-0.023-0.011-0.041-0.021-0.059-0.031l0.003 0.002c-0.021-0.012-0.046-0.023-0.072-0.032l-0.004-0.001c-0.029-0.010-0.064-0.020-0.1-0.027l-0.004-0.001c-0.041-0.007-0.088-0.011-0.136-0.011-0.003 0-0.005 0-0.008 0h0c-0.002-0-0.004-0-0.007-0-0.076 0-0.149 0.013-0.216 0.036l0.005-0.001c-0.063 0.022-0.12 0.055-0.167 0.098-0.045 0.042-0.080 0.093-0.104 0.15l-0.001 0.003c-0.024 0.061-0.038 0.132-0.038 0.206s0.014 0.145 0.039 0.21l-0.001-0.004c0.025 0.058 0.063 0.111 0.113 0.156 0.046 0.042 0.103 0.076 0.165 0.098 0.072 0.021 0.148 0.030 0.224 0.024zM22.912 11.605h0.618v0.141h-0.807v-1.235h0.193l-0.004 1.094zM24.173 11.745h-0.193v-1.235h0.193v1.235zM24.894 10.517c0.012 0.006 0.021 0.013 0.030 0.022l0 0 0.828 0.931c-0.001-0.007-0.001-0.014-0.001-0.022s0-0.015 0.001-0.023l-0 0.001v-0.92h0.169v1.24h-0.097c-0.002 0-0.004 0-0.006 0-0.013 0-0.025-0.003-0.036-0.007l0.001 0c-0.012-0.006-0.022-0.014-0.030-0.023l-0-0-0.827-0.93v0.96h-0.162v-1.235h0.101c0.011 0 0.022 0.002 0.032 0.006zM27.345 10.511v0.136h-0.686v0.408h0.556v0.131h-0.556v0.421h0.686v0.136h-0.885v-1.232h0.885zM7.054 2.885l8.598 2.108v7.386l-8.598-2.107v-7.387zM6.502 2.255v8.376l9.7 2.379v-8.375l-9.7-2.379z"></path>
<path  d="M11.701 16.897l-9.701-2.381v-8.374l9.701 2.38v8.375z"></path>
<path  d="M6.663 2.79l8.486 2.081-3.609 3.117-8.487-2.082 3.61-3.116zM6.502 2.256l-4.502 3.887 9.701 2.38 4.501-3.887-9.7-2.379zM12.247 16.426l3.955-3.416-3.955-0.97v4.387z"></path>
</symbol>
<symbol id="icon-clock" viewBox="0 0 20 20">
<path fill="#212121" style="fill: var(--color5, #212121)" d="M19.56 9.563c-0.001-5.283-4.284-9.564-9.567-9.563s-9.564 4.285-9.563 9.567c0.001 4.242 2.764 7.839 6.588 9.091l0.068 0.019c0.038 0.012 0.077 0.018 0.117 0.018 0.075 0 0.149-0.020 0.214-0.059 0.085-0.050 0.147-0.129 0.177-0.223l2.415-7.656c0.658-0.002 1.191-0.537 1.191-1.195 0-0.66-0.535-1.195-1.195-1.195-0.189 0-0.369 0.044-0.528 0.123l0.007-0.003-3.191-3.192c-0.072-0.069-0.169-0.112-0.277-0.112-0.22 0-0.399 0.178-0.399 0.399 0 0.108 0.043 0.205 0.112 0.277l-0-0 3.189 3.193c-0.075 0.151-0.12 0.328-0.12 0.516 0 0.376 0.177 0.711 0.452 0.925l0.003 0.002-2.301 7.296c-4.549-1.676-6.878-6.721-5.202-11.27s6.721-6.878 11.27-5.202c4.549 1.675 6.878 6.721 5.202 11.27-0.84 2.238-2.502 4.004-4.609 4.961l-0.055 0.022-0.249-1.171c-0.039-0.182-0.199-0.316-0.39-0.316-0.102 0-0.195 0.039-0.266 0.102l0-0-2.398 2.141c-0.082 0.073-0.134 0.18-0.134 0.298 0 0.177 0.116 0.327 0.275 0.379l0.003 0.001 3.062 0.977c0.037 0.012 0.079 0.019 0.122 0.019 0.22 0 0.398-0.178 0.398-0.398 0-0.030-0.003-0.058-0.009-0.086l0 0.003-0.244-1.149c3.455-1.484 5.83-4.857 5.83-8.785 0-0.007 0-0.014-0-0.021v0.001zM9.995 9.165c0.22 0 0.399 0.178 0.399 0.399s-0.178 0.399-0.399 0.399v0c-0.22 0-0.399-0.178-0.399-0.399s0.178-0.399 0.399-0.399v0zM11.308 18.455l1.365-1.218 0.377 1.775-1.742-0.557z"></path>
<path fill="#2196f3" style="fill: var(--color1, #2196f3)" d="M9.597 1.991v0.797c0 0.22 0.178 0.399 0.399 0.399s0.399-0.178 0.399-0.399v0-0.797c0-0.22-0.178-0.399-0.399-0.399s-0.399 0.178-0.399 0.399v0zM2.423 9.165c-0.22 0-0.399 0.178-0.399 0.399s0.178 0.399 0.399 0.399h0.797c0.22 0 0.399-0.178 0.399-0.399s-0.178-0.399-0.399-0.399h-0.797zM17.568 9.962c0.22 0 0.399-0.178 0.399-0.399s-0.178-0.399-0.399-0.399h-0.797c-0.22 0-0.399 0.178-0.399 0.399s0.178 0.399 0.399 0.399h0.797z"></path>
</symbol>
<symbol id="icon-antena" viewBox="0 0 19 20">
<path fill="#212121" style="fill: var(--color5, #212121)" d="M18.662 13.811l-5.277-5.316 0.586-2.885c0.14 0.057 0.303 0.090 0.474 0.091h0.005c0.005 0 0.010 0 0.016 0 0.745 0 1.349-0.604 1.349-1.349s-0.604-1.349-1.349-1.349c-0.745 0-1.349 0.604-1.349 1.349 0 0.162 0.029 0.318 0.081 0.462l-0.003-0.009-3.1 0.379-5.057-5.083c-0.060-0.061-0.143-0.099-0.235-0.1h-0c-0.087 0.001-0.171 0.035-0.233 0.097l-0.945 0.94c-0.060 0.060-0.098 0.144-0.098 0.236s0.037 0.175 0.098 0.236v0l0.509 0.516c-0.714 1.289-1.135 2.826-1.135 4.462 0 2.566 1.035 4.89 2.71 6.578l-0.001-0.001c0.027 0.026 0.058 0.046 0.091 0.061-0.020 0.102-0.032 0.221-0.033 0.341v3.867h-4c-0.92 0.001-1.666 0.746-1.667 1.666v0.667c0 0.184 0.149 0.333 0.334 0.333h15.333c0.184 0 0.333-0.149 0.333-0.333v-0.667c-0.001-0.92-0.747-1.665-1.666-1.667h-4v-1.714c0.627 0.131 1.265 0.198 1.905 0.2 1.612-0.002 3.128-0.414 4.448-1.139l-0.048 0.024 0.511 0.514c0.062 0.063 0.147 0.099 0.235 0.1 0.087-0.001 0.171-0.035 0.233-0.097l0.945-0.94c0.060-0.060 0.098-0.144 0.098-0.236s-0.037-0.175-0.098-0.236v0zM13.979 3.896c0.121-0.12 0.287-0.194 0.47-0.194 0.368 0 0.667 0.298 0.667 0.667s-0.298 0.667-0.667 0.667c-0 0-0 0-0 0h-0.002c-0.367-0.002-0.663-0.3-0.663-0.667 0-0.185 0.075-0.352 0.196-0.473l0-0h-0.001zM13.194 6.086l-0.374 1.841-0.735-0.739 1.109-1.102zM12.815 5.522l-1.2 1.193-0.929-0.933 2.129-0.26zM14.431 18c0.552 0 1 0.448 1 1v0 0.333h-14.667v-0.333c0-0.552 0.448-1 1-1v0h12.667zM9.765 16.667v0.667h-3.333v-0.667h3.333zM6.431 16v-2.533c0-0.809 0.748-1.467 1.667-1.467s1.667 0.658 1.667 1.467v2.533h-3.333zM10.431 14.94v-1.473c0-1.176-1.047-2.133-2.333-2.133-0.011-0-0.024-0-0.036-0-0.845 0-1.588 0.442-2.008 1.107l-0.006 0.010c-1.475-1.551-2.382-3.654-2.382-5.969 0-1.446 0.354-2.81 0.981-4.009l-0.023 0.048 11.626 11.693c-1.139 0.592-2.487 0.939-3.916 0.939-0.674 0-1.33-0.077-1.96-0.223l0.058 0.011zM17.487 14.513l-13.161-13.238 0.471-0.47 4.959 4.987c0.002 0 0.004 0.004 0.006 0.006l8.197 8.245-0.473 0.47z"></path>
<path fill="#2196f3" style="fill: var(--color1, #2196f3)" d="M8.101 12.667h-0.003c-0 0-0.001 0-0.002 0-0.552 0-1 0.448-1 1s0.447 0.999 0.998 1h0.003c0 0 0.001 0 0.001 0 0.552 0 1-0.448 1-1s-0.447-0.999-0.998-1h-0zM8.334 13.903c-0.060 0.060-0.143 0.097-0.235 0.097-0.184 0-0.333-0.149-0.333-0.333s0.149-0.333 0.332-0.333h0c0.183 0.001 0.332 0.15 0.332 0.333 0 0.092-0.038 0.176-0.098 0.236l-0 0h0.003z"></path>
</symbol>
<symbol id="icon-astronaut" viewBox="0 0 20 20">
<path fill="#2196f3" style="fill: var(--color1, #2196f3)" d="M19.984 2.827c-0.040-0.119-0.142-0.208-0.267-0.226l-0.002-0-1.194-0.174-0.534-1.082c-0.112-0.228-0.486-0.228-0.597 0l-0.534 1.082-1.194 0.174c-0.162 0.024-0.286 0.163-0.286 0.33 0 0.093 0.038 0.178 0.1 0.239l0.865 0.842-0.204 1.189c-0.021 0.125 0.030 0.251 0.132 0.326 0.104 0.075 0.239 0.085 0.351 0.025l1.068-0.562 1.068 0.562c0.045 0.024 0.098 0.038 0.155 0.038 0.184 0 0.334-0.149 0.334-0.334 0-0.020-0.002-0.039-0.005-0.058l0 0.002-0.204-1.189 0.864-0.843c0.062-0.061 0.1-0.145 0.1-0.239 0-0.037-0.006-0.072-0.017-0.105l0.001 0.002zM18.445 3.657c-0.079 0.076-0.114 0.187-0.096 0.295l0.119 0.696-0.625-0.329c-0.045-0.024-0.099-0.039-0.155-0.039s-0.11 0.014-0.157 0.039l0.002-0.001-0.625 0.329 0.119-0.696c0.003-0.017 0.005-0.037 0.005-0.057 0-0.093-0.038-0.178-0.1-0.238l-0-0-0.507-0.493 0.699-0.101c0.109-0.016 0.202-0.084 0.251-0.183l0.313-0.633 0.313 0.633c0.049 0.099 0.142 0.167 0.251 0.183l0.699 0.101-0.506 0.493zM16.333 12.826h-0.667v0.667h0.667v-0.667zM16.333 14.16h-0.667v0.666h0.667v-0.666zM17 13.493h-0.667v0.667h0.667v-0.667zM15.667 13.493h-0.667v0.667h0.667v-0.667zM14 16.493h-0.667v0.667h0.667v-0.667zM14 17.827h-0.667v0.667h0.667v-0.667zM14.667 17.16h-0.667v0.667h0.667v-0.667zM13.333 17.16h-0.667v0.667h0.667v-0.667zM10 15.16h-0.667v0.667h0.667v-0.667zM10 16.493h-0.667v0.667h0.667v-0.667zM10.667 15.826h-0.667v0.667h0.667v-0.667zM9.333 15.826h-0.667v0.667h0.667v-0.667zM3.667 3.826h-0.667v0.667h0.667v-0.667zM3.667 5.16h-0.667v0.667h0.667v-0.666zM4.333 4.493h-0.667v0.667h0.667v-0.667zM3 4.493h-0.667v0.667h0.667v-0.667z"></path>
<path fill="#212121" style="fill: var(--color5, #212121)" d="M15.447 8.85c-0.175-0.235-0.437-0.398-0.737-0.44l-0.006-0.001c-0.048-0.007-0.103-0.011-0.159-0.011-0.257 0-0.493 0.087-0.681 0.233l0.003-0.002-0.783 0.6-1.186 0.886-0.849-0.338c1.513-0.679 2.571-2.193 2.571-3.95 0-2.389-1.951-4.333-4.351-4.333s-4.351 1.944-4.351 4.333c0 0.866 0.259 1.671 0.7 2.349l-1.73-0.015c-0.005 0-0.010 0.003-0.015 0.003-0.035 0.002-0.068 0.009-0.099 0.020l0.002-0.001c-0.008 0.003-0.016 0.005-0.024 0.008-0.004 0.002-0.008 0.002-0.012 0.004l-2.021 0.997c-0 0-0.001 0-0.001 0.001l-1.183 0.569c-0.015 0.007-0.028 0.014-0.040 0.023l0.001-0.001c-0.301 0.202-0.497 0.542-0.497 0.927 0 0.186 0.045 0.361 0.126 0.515l-0.003-0.006c0.137 0.265 0.37 0.464 0.652 0.553l0.008 0.002c0.1 0.033 0.216 0.052 0.336 0.052 0.193 0 0.374-0.049 0.532-0.135l-0.006 0.003 0.867-0.461 1.415-0.731 0.848-0.005-3.401 3.385c0 0.001-0.001 0.001-0.001 0.001l-0.837 0.833c-0.189 0.187-0.307 0.446-0.307 0.733 0 0.001 0 0.002 0 0.003v-0c0.001 0.575 0.467 1.040 1.042 1.040 0.001 0 0.001 0 0.002 0h-0c0.267 0 0.534-0.101 0.738-0.303l0.821-0.818 1.088-0.812 0.563 0.561-1.939 1.93c-0.189 0.187-0.307 0.446-0.307 0.733 0 0.001 0 0.002 0 0.003v-0c0 0.278 0.109 0.54 0.307 0.737 0.188 0.187 0.448 0.303 0.735 0.303 0.001 0 0.001 0 0.002 0h-0c0.267 0 0.534-0.101 0.738-0.303l2.805-2.795c0.004-0.004 0.010-0.005 0.014-0.010l3.229-3.536 2.169 0.309c0.016 0.002 0.031 0.003 0.047 0.003 0.040 0 0.079-0.010 0.117-0.024 0.011-0.004 0.020-0.009 0.031-0.015 0.012-0.006 0.025-0.009 0.036-0.017l2.008-1.333c0.007-0.005 0.011-0.013 0.018-0.019 0.008-0.006 0.018-0.009 0.025-0.016l0.794-0.744c0.217-0.203 0.353-0.492 0.353-0.812 0-0.25-0.083-0.481-0.222-0.667l0.002 0.003zM1.331 11.106c-0.061 0.034-0.134 0.054-0.212 0.054-0.049 0-0.096-0.008-0.14-0.022l0.003 0.001c-0.184-0.058-0.315-0.227-0.315-0.427 0-0.147 0.071-0.278 0.181-0.359l0.001-0.001 0.821-0.395 0.198 0.578 0.083 0.243-0.62 0.329zM3.517 9.964l-0.968 0.5-0.159-0.467-0.115-0.335 1.267-0.625-0.025 0.927zM12.954 5.826c0 0.574-0.137 1.115-0.374 1.6l-2.613-1.187c-0.027-0.359-0.214-0.67-0.489-0.865l-0.004-0.002 0.915-3.038c1.486 0.473 2.565 1.859 2.565 3.493zM5.586 5.826c0-2.022 1.653-3.667 3.684-3.667 0.158 0 0.313 0.013 0.466 0.033l-0.895 2.971c-0.012 0-0.023-0.004-0.036-0.004-0 0-0 0-0.001 0-0.645 0-1.168 0.522-1.17 1.167v0c0.002 0.645 0.525 1.167 1.17 1.167 0 0 0 0 0 0h-0c0.434 0 0.809-0.239 1.011-0.59l2.414 1.097c-0.672 0.904-1.747 1.494-2.961 1.494-2.031 0-3.684-1.645-3.684-3.667zM9.309 6.326c0 0.276-0.226 0.5-0.504 0.5-0 0-0.001 0-0.001 0-0.277 0-0.501-0.224-0.503-0.5v-0c0-0.276 0.226-0.5 0.503-0.5s0.504 0.224 0.504 0.5zM1.54 15.716c-0.069 0.068-0.163 0.11-0.267 0.11s-0.198-0.042-0.267-0.11l0 0c-0.068-0.067-0.11-0.161-0.11-0.264s0.042-0.197 0.11-0.264l0-0 0.601-0.599 0.533 0.53-0.599 0.597zM3.549 18.050c-0.069 0.068-0.163 0.11-0.267 0.11s-0.198-0.042-0.267-0.11l0 0c-0.068-0.067-0.11-0.161-0.11-0.264s0.042-0.197 0.11-0.264l0-0 0.602-0.599 0.532 0.53-0.6 0.597zM5.725 15.882l-0.001 0.001-1.103 1.1-0.533-0.53 1.103-1.098c0.025-0.025 0.041-0.055 0.056-0.085 0.004-0.009 0.013-0.016 0.016-0.025 0.010-0.026 0.012-0.053 0.016-0.080 0.002-0.015 0.009-0.030 0.009-0.046 0-0.022-0.008-0.044-0.013-0.066-0.004-0.020-0.004-0.040-0.012-0.060-0.015-0.033-0.034-0.061-0.057-0.086l0 0c-0.006-0.007-0.009-0.017-0.015-0.024h-0.001s0-0.001-0.001-0.001l-1.004-1c-0.011-0.011-0.024-0.015-0.036-0.024-0.016-0.013-0.034-0.025-0.053-0.035l-0.002-0.001c-0.017-0.008-0.036-0.015-0.056-0.020l-0.002-0c-0.019-0.006-0.041-0.010-0.063-0.012l-0.001-0c-0.004-0-0.009-0-0.014-0-0.016 0-0.032 0.001-0.047 0.003l0.002-0c-0.022 0.003-0.043 0.006-0.065 0.013s-0.040 0.017-0.059 0.028c-0.013 0.007-0.027 0.009-0.038 0.018l-1.109 0.827-0.563-0.561 1.499-1.491 2.725 2.681-0.58 0.574zM9.987 11.496c-0.010-0.001-0.019 0.002-0.029 0.002-0.005-0-0.011-0-0.017-0-0.020 0-0.039 0.002-0.057 0.005l0.002-0c-0.043 0.007-0.082 0.022-0.117 0.044l0.001-0.001c-0.019 0.011-0.035 0.023-0.052 0.038-0.008 0.007-0.018 0.010-0.025 0.018l-2.936 3.216-2.705-2.66 1.771-1.761c0.060-0.060 0.097-0.144 0.097-0.236 0-0.184-0.149-0.334-0.334-0.334-0 0-0.001 0-0.001 0h0l-1.387 0.008 0.017-1.005 1.94 0.017c0.79 0.81 1.892 1.313 3.111 1.313 0.001 0 0.001 0 0.002 0h-0c0.273 0 0.54-0.029 0.8-0.077 0.025 0.020 0.050 0.040 0.081 0.053l1.506 0.6 0.095 0.474 0.111 0.553-1.877-0.267zM12.513 11.608l-0.196-0.974 0.904-0.675 0.591 0.785-1.3 0.863zM14.858 9.838l-0.523 0.491-0.582-0.773 0.519-0.398c0.097-0.075 0.219-0.105 0.339-0.089 0.121 0.017 0.227 0.080 0.3 0.178 0.055 0.073 0.088 0.166 0.088 0.266 0 0.128-0.054 0.244-0.141 0.326l-0 0z"></path>
<path fill="#212121" style="fill: var(--color5, #212121)" d="M8.501 11.59l-1.339-1.333c-0.060-0.060-0.143-0.097-0.235-0.097s-0.175 0.037-0.235 0.097l-1.339 1.333c-0.060 0.061-0.098 0.144-0.098 0.236s0.037 0.176 0.098 0.236l-0-0 1.339 1.333c0.060 0.060 0.143 0.097 0.235 0.097s0.175-0.037 0.235-0.097v0l1.339-1.333c0.061-0.060 0.098-0.144 0.098-0.236s-0.038-0.176-0.098-0.236l-0-0zM6.927 12.689l-0.867-0.863 0.867-0.863 0.867 0.863-0.867 0.863zM10.728 3.169l-0.161 0.647c0.045 0.011 1.086 0.282 1.086 1.343h0.667c0-1.261-1.041-1.853-1.592-1.99zM12.319 5.826h-0.667v0.667h0.667v-0.667z"></path>
</symbol>
<symbol id="icon-diagram" viewBox="0 0 20 20">
<path fill="#2196f3" style="fill: var(--color1, #2196f3)" d="M9.329 9.353h0.666v2.999h-0.666v-2.999zM11.994 10.686h0.666v1.666h-0.666v-1.666zM6.663 11.685h0.666v0.666h-0.666v-0.666zM4.664 11.352h0.666v0.999h-0.666v-0.999z"></path>
<path fill="#212121" style="fill: var(--color5, #212121)" d="M0.999 17.682h15.991c0 0 0 0 0 0 0.552 0 0.999-0.447 0.999-0.999v0-1.333c0-0.552-0.447-0.999-0.999-0.999v0h-0.333v-8.309l1.892-1.793c0.13 0.065 0.282 0.104 0.444 0.104 0.555 0 1.005-0.45 1.005-1.005s-0.45-1.005-1.005-1.005c-0.555 0-1.005 0.45-1.005 1.005 0 0.154 0.035 0.3 0.097 0.431l-0.003-0.006-1.426 1.351v-0.769c0-0.552-0.447-0.999-0.999-0.999v0h-13.327c-0.552 0-0.999 0.447-0.999 0.999v0 9.995h-0.333c-0.552 0-0.999 0.447-0.999 0.999v0 1.333c0 0.552 0.447 0.999 0.999 0.999v0zM18.99 3.023c0.184 0 0.333 0.149 0.333 0.333s-0.149 0.333-0.333 0.333v0c-0.184 0-0.333-0.149-0.333-0.333s0.149-0.333 0.333-0.333v0zM1.999 4.355c0-0.184 0.149-0.333 0.333-0.333h13.327c0.184 0 0.333 0.149 0.333 0.333v1.399l-0.666 0.633v-1.366c0-0.184-0.149-0.333-0.333-0.333h-11.993c-0.184 0-0.333 0.149-0.333 0.333v8.329c0 0.184 0.149 0.333 0.333 0.333h11.993c0.184 0 0.333-0.149 0.333-0.333v-6.047l0.666-0.631v7.677h-13.993v-9.994zM4.997 8.687c-0.001 0-0.002 0-0.003 0-0.552 0-0.999 0.447-0.999 0.999s0.447 0.999 0.999 0.999c0.27 0 0.515-0.107 0.695-0.281l-0 0 1.158 0.581c0.135 0.067 0.298 0.036 0.398-0.077l2.462-2.77 2.42 1.813c0.13 0.097 0.311 0.087 0.429-0.025l2.103-1.992v5.082h-11.327v-7.663h11.327v1.663l-2.357 2.232-2.44-1.829c-0.055-0.042-0.125-0.067-0.2-0.067-0.099 0-0.188 0.043-0.249 0.111l-0 0-2.495 2.808-0.933-0.467c0.007-0.040 0.011-0.080 0.013-0.121 0-0.552-0.447-0.999-0.999-0.999v0zM5.331 9.686c0 0.184-0.149 0.333-0.333 0.333s-0.333-0.149-0.333-0.333v0c0-0.184 0.149-0.333 0.333-0.333s0.333 0.149 0.333 0.333v0zM7.329 15.017h3.331v0.333c0 0.184-0.149 0.333-0.333 0.333h-2.665c-0.184 0-0.333-0.149-0.333-0.333v0-0.333zM0.667 15.35c0-0.184 0.149-0.333 0.333-0.333h5.664v0.333c0 0.552 0.447 0.999 0.999 0.999v0h2.665c0.552 0 0.999-0.447 0.999-0.999v0-0.333h5.664c0.184 0 0.333 0.149 0.333 0.333v1.333c0 0.184-0.149 0.333-0.333 0.333h-15.991c-0 0-0 0-0 0-0.184 0-0.333-0.149-0.333-0.333 0 0 0 0 0 0v0-1.333z"></path>
</symbol>
<symbol id="icon-facebook" viewBox="0 0 20 20">
<path  d="M13.33 3.32h1.827v-3.18c-0.77-0.089-1.663-0.14-2.567-0.14-0.033 0-0.065 0-0.098 0l0.005-0c-2.633 0-4.437 1.656-4.437 4.7v2.8h-2.904v3.555h2.904v8.945h3.562v-8.944h2.787l0.442-3.555h-3.23v-2.451c0-1.027 0.277-1.73 1.709-1.73z"></path>
</symbol>
<symbol id="icon-instagram" viewBox="0 0 20 20">
<path  d="M19.98 5.88c-0.046-1.063-0.218-1.793-0.464-2.426-0.265-0.695-0.659-1.287-1.156-1.773l-0.001-0.001c-0.487-0.495-1.078-0.887-1.736-1.142l-0.034-0.011c-0.637-0.246-1.363-0.417-2.426-0.464-1.070-0.051-1.41-0.063-4.126-0.063s-3.055 0.012-4.122 0.059c-1.062 0.046-1.793 0.218-2.425 0.464-0.695 0.265-1.287 0.659-1.774 1.156l-0.001 0.001c-0.495 0.487-0.886 1.078-1.141 1.736l-0.011 0.034c-0.247 0.637-0.418 1.363-0.465 2.426-0.051 1.070-0.063 1.41-0.063 4.126s0.012 3.055 0.059 4.122c0.047 1.063 0.219 1.793 0.465 2.426 0.267 0.694 0.66 1.286 1.155 1.773l0.001 0.001c0.5 0.508 1.106 0.902 1.77 1.152 0.637 0.247 1.364 0.419 2.426 0.465 1.067 0.047 1.407 0.059 4.122 0.059s3.056-0.012 4.122-0.059c1.063-0.046 1.793-0.218 2.426-0.464 1.348-0.531 2.396-1.579 2.915-2.892l0.012-0.035c0.246-0.637 0.418-1.364 0.465-2.426 0.047-1.067 0.058-1.407 0.058-4.122s-0.004-3.055-0.050-4.122zM18.18 14.046c-0.044 0.977-0.208 1.504-0.344 1.856-0.345 0.875-1.025 1.554-1.877 1.89l-0.023 0.008c-0.35 0.137-0.882 0.301-1.855 0.344-1.055 0.047-1.371 0.059-4.040 0.059s-2.989-0.012-4.040-0.059c-0.977-0.043-1.504-0.207-1.856-0.344-0.45-0.168-0.834-0.422-1.147-0.745l-0.001-0.001c-0.323-0.315-0.577-0.698-0.74-1.127l-0.007-0.021c-0.136-0.352-0.3-0.883-0.343-1.856-0.047-1.055-0.059-1.372-0.059-4.040s0.012-2.99 0.059-4.040c0.043-0.977 0.207-1.504 0.343-1.856 0.168-0.451 0.424-0.836 0.749-1.148l0.001-0.001c0.315-0.323 0.699-0.577 1.129-0.739l0.021-0.007c0.35-0.137 0.882-0.3 1.855-0.344 1.055-0.046 1.372-0.058 4.040-0.058 2.672 0 2.989 0.012 4.040 0.058 0.977 0.043 1.504 0.207 1.856 0.344 0.433 0.16 0.828 0.414 1.148 0.746 0.332 0.325 0.586 0.715 0.747 1.15 0.136 0.35 0.3 0.882 0.343 1.855 0.047 1.055 0.059 1.371 0.059 4.040s-0.012 2.98-0.059 4.036z"></path>
<path  d="M10.037 4.864c-2.837 0.001-5.136 2.301-5.137 5.138v0c0.057 2.794 2.335 5.038 5.138 5.038s5.081-2.243 5.138-5.032l0-0.005c-0.001-2.837-2.301-5.137-5.138-5.138h-0zM10.037 13.334c-1.841-0-3.333-1.492-3.333-3.333s1.492-3.333 3.333-3.333c0 0 0 0 0.001 0h-0c1.841 0 3.333 1.492 3.333 3.333s-1.492 3.333-3.333 3.333v0zM16.578 4.661c0 0.663-0.537 1.2-1.2 1.2s-1.2-0.537-1.2-1.2v0c0-0.663 0.537-1.2 1.2-1.2s1.2 0.537 1.2 1.2v0z"></path>
</symbol>
<symbol id="icon-linkedin" viewBox="0 0 20 20">
<path  d="M19.995 20h0.005v-7.336c0-3.588-0.773-6.352-4.967-6.352-2.017 0-3.37 1.106-3.923 2.156h-0.058v-1.821h-3.978v13.352h4.142v-6.611c0-1.741 0.33-3.425 2.486-3.425 2.124 0 2.155 1.987 2.155 3.536v6.501h4.138zM0.33 6.647h4.147v13.353h-4.147v-13.353zM2.402 0c-1.327 0-2.402 1.075-2.402 2.402v0c0 1.325 1.076 2.424 2.402 2.424s2.401-1.098 2.401-2.424c-0.001-1.326-1.075-2.401-2.401-2.402h-0z"></path>
</symbol>
<symbol id="icon-mail" viewBox="0 0 27 20">
<path  d="M24.167 0h-21.667c-1.378 0-2.5 1.122-2.5 2.5v15c0 1.378 1.122 2.5 2.5 2.5h21.667c1.378 0 2.5-1.122 2.5-2.5v-15c0-1.378-1.122-2.5-2.5-2.5zM24.167 1.667c0.113 0 0.222 0.023 0.32 0.065l-11.153 9.667-11.153-9.667c0.094-0.041 0.204-0.065 0.32-0.065h21.667zM24.167 18.333h-21.667c-0.46 0-0.833-0.373-0.833-0.833v0-14.008l11.12 9.638c0.145 0.127 0.337 0.204 0.547 0.204s0.401-0.077 0.548-0.205l-0.001 0.001 11.12-9.638v14.008c0 0.46-0.373 0.833-0.833 0.833v0z"></path>
</symbol>
<symbol id="icon-smartphone" viewBox="0 0 13 20">
<path  d="M10.625 0h-8.75c-1.034 0-1.875 0.841-1.875 1.875v16.25c0 1.034 0.841 1.875 1.875 1.875h8.75c1.034 0 1.875-0.841 1.875-1.875v-16.25c0-1.034-0.841-1.875-1.875-1.875zM1.875 1.25h8.75c0.345 0 0.625 0.28 0.625 0.625v0 13.125h-10v-13.125c0-0.345 0.28-0.625 0.625-0.625v0zM10.625 18.75h-8.75c-0.345 0-0.625-0.28-0.625-0.625v0-1.875h10v1.875c0 0.345-0.28 0.625-0.625 0.625v0z"></path>
<path  d="M2.942 17.174c0.113 0.102 0.183 0.249 0.183 0.412s-0.070 0.31-0.183 0.412l-0 0c-0.116 0.106-0.272 0.172-0.442 0.172s-0.326-0.065-0.443-0.172l0 0c-0.113-0.102-0.183-0.249-0.183-0.413s0.070-0.31 0.183-0.412l0-0c0.116-0.106 0.272-0.172 0.442-0.172s0.326 0.065 0.443 0.172l-0-0z"></path>
</symbol>
<symbol id="icon-twitter" viewBox="0 0 20 20">
<path  d="M20 3.799c-0.688 0.308-1.485 0.536-2.32 0.643l-0.043 0.004c0.85-0.51 1.489-1.299 1.796-2.237l0.008-0.029c-0.748 0.452-1.62 0.796-2.547 0.983l-0.053 0.009c-0.75-0.799-1.813-1.297-2.992-1.297-2.264 0-4.099 1.835-4.099 4.099 0 0.001 0 0.002 0 0.002v-0c0 0.325 0.027 0.638 0.095 0.935-3.409-0.166-6.425-1.8-8.451-4.288-0.353 0.593-0.562 1.307-0.564 2.070v0.001c0 1.42 0.732 2.679 1.821 3.407-0.682-0.019-1.317-0.203-1.871-0.515l0.020 0.011v0.045c0.002 1.978 1.398 3.63 3.258 4.025l0.027 0.005c-0.312 0.085-0.67 0.134-1.039 0.134-0.013 0-0.025-0-0.038-0l0.002 0c-0.262 0-0.527-0.015-0.776-0.070 0.531 1.624 2.038 2.818 3.831 2.856-1.384 1.091-3.154 1.75-5.077 1.75-0.003 0-0.005 0-0.008 0h0c-0.336 0-0.658-0.016-0.981-0.057 1.767 1.154 3.93 1.84 6.253 1.84 0.013 0 0.026-0 0.039-0h-0.002c7.545 0 11.67-6.25 11.67-11.668 0-0.18-0.006-0.356-0.015-0.53 0.812-0.585 1.494-1.29 2.036-2.098l0.019-0.029z"></path>
</symbol>
</defs>
</svg>
